<svg width="108" height="107" viewBox="0 0 108 107" fill="none" xmlns="http://www.w3.org/2000/svg">
<path d="M50.2175 2.29716C51.6585 -0.765715 56.0154 -0.765715 57.4564 2.29716L64.4584 17.1802C65.3943 19.1695 67.7603 20.0306 69.7559 19.1083L84.6864 12.2081C87.7591 10.788 91.0966 13.5886 90.2317 16.8612L86.029 32.763C85.4672 34.8885 86.7261 37.069 88.8477 37.6453L104.721 41.9565C107.987 42.8438 108.744 47.1344 105.978 49.0854L92.5365 58.5655C90.7399 59.8326 90.3027 62.3122 91.5576 64.1173L100.946 77.6228C102.878 80.4022 100.699 84.1754 97.3262 83.8919L80.9361 82.5143C78.7453 82.3301 76.8166 83.9486 76.6175 86.138L75.128 102.518C74.8215 105.889 70.7274 107.379 68.3257 104.994L56.6557 93.4035C55.0958 91.8543 52.578 91.8543 51.0182 93.4035L39.3481 104.994C36.9464 107.379 32.8523 105.889 32.5458 102.518L31.0563 86.138C30.8572 83.9486 28.9285 82.3301 26.7377 82.5143L10.3476 83.8919C6.97461 84.1754 4.79617 80.4022 6.7282 77.6228L16.1163 64.1173C17.3711 62.3122 16.9339 59.8326 15.1373 58.5655L1.69629 49.0854C-1.06984 47.1344 -0.313269 42.8438 2.9533 41.9565L18.8261 37.6453C20.9477 37.069 22.2066 34.8885 21.6449 32.763L17.4421 16.8612C16.5772 13.5886 19.9148 10.788 22.9874 12.2081L37.9179 19.1083C39.9136 20.0306 42.2795 19.1695 43.2154 17.1802L50.2175 2.29716Z" fill="#C7E15F"/>
</svg>
